<svg id="Layer_1" data-name="Layer 1" xmlns="http://www.w3.org/2000/svg" viewBox="0 0 589 216"><defs><style>.cls-1{fill:#c13027;}.cls-2{fill:#1f295c;}.cls-3{fill:none;}</style></defs><title>LOGO-EPS</title><path class="cls-1" d="M53.39,75.35c19.25,0,35,8.16,35,27.57,0,10.63-6,18.64-14.94,22.64,11.4,3.23,20,11.55,20,26.8C93.43,173.75,77,185,56.31,185H1.49V75.35ZM24.9,119.7H46.77c8.78,0,18.17-1.69,18.17-12.78S56,94,46.77,94H24.9Zm0,46.2H49.08c10.32,0,20.33-2,20.33-14.94C69.4,137.72,58.62,136,47.84,136H24.9Z"/><path class="cls-1" d="M180,95.06H121.61v23.87H175.2v18.94H121.61v27h59.45V185H97.74V75.35H180Z"/><path class="cls-1" d="M240.65,75.35c20.17,0,37,9.09,37,31.11,0,12.78-6.47,22.79-17.4,27,12.17,2.46,15.25,14.79,16.17,25.57.62,6.93.92,22,5.24,26H256.67c-2.77-5.54-2.77-16.48-3.39-22.49-1.54-15.09-6.16-20.48-21.87-20.48H210v43H186.13V75.35ZM210,124.63H232.8c11.24,0,21.25-2,21.25-15.55,0-12.63-10-14.78-20.17-14.78H210Z"/><path class="cls-2" d="M304.25,185H282.38V75.35h21.87Z"/><path class="cls-2" d="M392,145.26c0,25.57-16.17,42.2-41,42.2s-41.12-16.79-41.12-42.2c0-25.26,16.48-42,41.43-42C375.86,103.22,392,120,392,145.26Zm-60.22,0c0,16.33,7.08,25.72,19.25,25.72,12,0,19.1-9.55,19.1-25.87,0-15.86-7.24-25.26-19.4-25.26C339.05,119.85,331.81,129.4,331.81,145.26Z"/><path class="cls-2" d="M473.34,176.68c0,26.49-13.24,37.89-39.12,37.89-22.95,0-35.11-8.16-37.27-24.79h21.71c1.69,7.08,6.47,10.16,16,10.16,14.63,0,17.4-7.85,17.56-20.64l.15-8.93c-6,8.32-13.86,12.32-24.33,12.32-20.64,0-33.88-15.25-33.88-39.12,0-24.18,13.86-40.2,34.81-40.2,11.09,0,17.86,3.85,23.72,12.78V105.53h20.64Zm-57.6-33.27c0,14,7.08,22.95,18.48,22.95,11.24,0,18.33-8.93,18.33-23.41,0-14.17-6.93-22.64-18.48-22.64S415.74,128.94,415.74,143.42Z"/><path class="cls-2" d="M504.45,93.83H482.58V75.35h21.87Zm0,91.17H482.58V105.53h21.87Z"/><path class="cls-2" d="M550.18,187c-24.49,0-40.5-16.33-40.5-41.12,0-25.72,16.17-42.66,40.81-42.66,21.25,0,35.42,11.55,37.27,30H566.35c-1.54-8.78-7.24-13.71-15.71-13.71-11.86,0-18.94,9.55-18.94,25.87,0,15.86,6.78,24.95,18.48,24.95,9.39,0,15.25-5.54,16.94-16h21.1C585.45,175,571.28,187,550.18,187Z"/><rect class="cls-3" width="100" height="50"/></svg>